<svg width="24" height="24" viewBox="0 0 80 70.96" class="" xmlns="http://www.w3.org/2000/svg">
      <defs>
        <style>
          .icon-cls-2 {
            fill: #fff;
          }
    
          .icon-cls-3 {
            fill: url(#iconGradient);
          }
        </style>
        <radialGradient id="iconGradient" cx="40.89" cy="75.22" fx="40.89" fy="75.22" r="85.61" gradientUnits="userSpaceOnUse">
          <stop offset="0" stop-color="#fff100"></stop>
          <stop offset=".23" stop-color="#7fbe26"></stop>
          <stop offset=".41" stop-color="#094"></stop>
          <stop offset=".66" stop-color="#008cd6"></stop>
          <stop offset="1" stop-color="#af4284"></stop>
        </radialGradient>
      </defs>
      <g>
        <path class="icon-cls-3" d="m40.09,63c-12.89.07-20.56,5.49-28.99,7.48-10.77,2.54-13.07-5.58-9.58-14.37C8.31,39.68,17.94,22.4,30.77,5.43,33.69,1.75,36.88-.05,40.09,0c3.21-.05,6.4,1.75,9.32,5.43,12.82,16.97,22.46,34.25,29.26,50.68,3.49,8.8,1.19,16.91-9.58,14.37-8.43-1.99-16.1-7.41-28.99-7.48Z">
        </path>
        <path class="icon-cls-2" d="m40.09,54.65c-1.67,0-6.7.09-11.84,1.62-5.57,1.67-4.37-3.17-12.55-3.34-.47-.01-.5-.49-.06-.62,3.33-.9,7.58-2.46,8.63-5.14.61-2.38.06-4.38-.67-6.05-.73-1.67-1.87-3.84-3.18-5.89-.35-.55.17-1,.67-.64,1.89,1.49,3.92,2.92,5.55,3.87,1.83,1.08,4.08,2.06,7.17,1.24,2.7-.79,3.76-4.1,4.26-5.48.78-2.17,1.27-5.88,1.57-9.35.03-.34.24-.51.45-.5.21,0,.42.16.44.5.3,3.47.78,7.18,1.57,9.35.5,1.38,1.56,4.69,4.26,5.48,3.09.82,5.34-.16,7.17-1.24,1.62-.95,3.66-2.39,5.55-3.87.5-.37,1.01.09.67.64-1.31,2.05-2.45,4.22-3.18,5.89-.73,1.67-1.28,3.66-.67,6.05,1.05,2.68,5.31,4.25,8.63,5.14.44.13.41.61-.06.62-8.18.17-6.98,5.01-12.55,3.34-5.14-1.54-10.16-1.63-11.83-1.62Z">
        </path>
      </g>
    </svg>