<svg xmlns="http://www.w3.org/2000/svg" width="1200" height="675" viewBox="0 0 1200 675" role="img" aria-label="One EAO work system, different department environments">
<rect width="1200" height="675" fill="#f7fbfa"/>
<g font-family="Inter,-apple-system,BlinkMacSystemFont,'Segoe UI','PingFang SC','Microsoft YaHei',Arial,sans-serif" fill="#10201e"><text x="55" y="58" font-size="30" font-weight="800" fill="#10201e" text-anchor="start">One EAO work system, different department environments</text><text x="55" y="92" font-size="16" font-weight="500" fill="#60716e" text-anchor="start">Each department uses its approved knowledge, files, tools and access scope.</text><rect x="420" y="128" width="360" height="112" rx="16" fill="#ffffff" stroke="#08cfc4" stroke-width="1.4"/><rect x="455" y="164" width="8" height="8" rx="2" fill="#087a74"/><rect x="466" y="164" width="8" height="8" rx="2" fill="#087a74"/><rect x="477" y="164" width="8" height="8" rx="2" fill="#087a74"/><rect x="455" y="175" width="8" height="8" rx="2" fill="#087a74"/><rect x="466" y="175" width="8" height="8" rx="2" fill="#08cfc4"/><rect x="477" y="175" width="8" height="8" rx="2" fill="#087a74"/><rect x="455" y="186" width="8" height="8" rx="2" fill="#087a74"/><rect x="466" y="186" width="8" height="8" rx="2" fill="#087a74"/><rect x="477" y="186" width="8" height="8" rx="2" fill="#087a74"/><text x="510" y="168" font-size="28" font-weight="850" fill="#087a74" text-anchor="start">EAO</text><text x="510" y="197" font-size="16" font-weight="600" fill="#60716e" text-anchor="start">One employee surface + department context</text><path d="M 600 240 C 600 275, 145 265, 145 310" fill="none" stroke="#d7e5e2" stroke-width="2.2"/><circle cx="145" cy="310" r="4" fill="#08cfc4"/><path d="M 600 240 C 600 275, 370 265, 370 310" fill="none" stroke="#d7e5e2" stroke-width="2.2"/><circle cx="370" cy="310" r="4" fill="#08cfc4"/><path d="M 600 240 C 600 275, 595 265, 595 310" fill="none" stroke="#d7e5e2" stroke-width="2.2"/><circle cx="595" cy="310" r="4" fill="#08cfc4"/><path d="M 600 240 C 600 275, 820 265, 820 310" fill="none" stroke="#d7e5e2" stroke-width="2.2"/><circle cx="820" cy="310" r="4" fill="#08cfc4"/><path d="M 600 240 C 600 275, 1045 265, 1045 310" fill="none" stroke="#d7e5e2" stroke-width="2.2"/><circle cx="1045" cy="310" r="4" fill="#08cfc4"/><rect x="40" y="320" width="210" height="240" rx="14" fill="#ffffff" stroke="#d7e5e2" stroke-width="1.4"/><text x="60" y="358" font-size="21" font-weight="800" fill="#087a74" text-anchor="start">Sales</text><line x1="60" y1="375" x2="230" y2="375" stroke="#d7e5e2" stroke-width="1.5"/><circle cx="64" cy="405" r="4" fill="#08cfc4"/><text x="78" y="410" font-size="12.5" font-weight="600" fill="#10201e" text-anchor="start">Product &amp; history</text><circle cx="64" cy="453" r="4" fill="#08cfc4"/><text x="78" y="458" font-size="12.5" font-weight="600" fill="#10201e" text-anchor="start">Customer &amp; market research</text><circle cx="64" cy="501" r="4" fill="#08cfc4"/><text x="78" y="506" font-size="12.5" font-weight="600" fill="#10201e" text-anchor="start">Replies &amp; sales material</text><rect x="266" y="320" width="210" height="240" rx="14" fill="#ffffff" stroke="#d7e5e2" stroke-width="1.4"/><text x="286" y="358" font-size="21" font-weight="800" fill="#087a74" text-anchor="start">Procurement</text><line x1="286" y1="375" x2="456" y2="375" stroke="#d7e5e2" stroke-width="1.5"/><circle cx="290" cy="405" r="4" fill="#08cfc4"/><text x="304" y="410" font-size="12.5" font-weight="600" fill="#10201e" text-anchor="start">BOM &amp; materials</text><circle cx="290" cy="453" r="4" fill="#08cfc4"/><text x="304" y="458" font-size="12.5" font-weight="600" fill="#10201e" text-anchor="start">Supplier research</text><circle cx="290" cy="501" r="4" fill="#08cfc4"/><text x="304" y="506" font-size="12.5" font-weight="600" fill="#10201e" text-anchor="start">RFQ &amp; cost material</text><rect x="492" y="320" width="210" height="240" rx="14" fill="#ffffff" stroke="#d7e5e2" stroke-width="1.4"/><text x="512" y="358" font-size="21" font-weight="800" fill="#087a74" text-anchor="start">Finance</text><line x1="512" y1="375" x2="682" y2="375" stroke="#d7e5e2" stroke-width="1.5"/><circle cx="516" cy="405" r="4" fill="#08cfc4"/><text x="530" y="410" font-size="12.5" font-weight="600" fill="#10201e" text-anchor="start">Policies &amp; finance files</text><circle cx="516" cy="453" r="4" fill="#08cfc4"/><text x="530" y="458" font-size="12.5" font-weight="600" fill="#10201e" text-anchor="start">Spreadsheets &amp; summaries</text><circle cx="516" cy="501" r="4" fill="#08cfc4"/><text x="530" y="506" font-size="12.5" font-weight="600" fill="#10201e" text-anchor="start">Reporting material</text><rect x="718" y="320" width="210" height="240" rx="14" fill="#ffffff" stroke="#d7e5e2" stroke-width="1.4"/><text x="738" y="358" font-size="21" font-weight="800" fill="#087a74" text-anchor="start">Operations</text><line x1="738" y1="375" x2="908" y2="375" stroke="#d7e5e2" stroke-width="1.5"/><circle cx="742" cy="405" r="4" fill="#08cfc4"/><text x="756" y="410" font-size="12.5" font-weight="600" fill="#10201e" text-anchor="start">Market / competitor research</text><circle cx="742" cy="453" r="4" fill="#08cfc4"/><text x="756" y="458" font-size="12.5" font-weight="600" fill="#10201e" text-anchor="start">Product &amp; content prep</text><circle cx="742" cy="501" r="4" fill="#08cfc4"/><text x="756" y="506" font-size="12.5" font-weight="600" fill="#10201e" text-anchor="start">B2B platform material</text><rect x="944" y="320" width="210" height="240" rx="14" fill="#ffffff" stroke="#d7e5e2" stroke-width="1.4"/><text x="964" y="358" font-size="21" font-weight="800" fill="#087a74" text-anchor="start">Management</text><line x1="964" y1="375" x2="1134" y2="375" stroke="#d7e5e2" stroke-width="1.5"/><circle cx="968" cy="405" r="4" fill="#08cfc4"/><text x="982" y="410" font-size="12.5" font-weight="600" fill="#10201e" text-anchor="start">Authorized cross-team info</text><circle cx="968" cy="453" r="4" fill="#08cfc4"/><text x="982" y="458" font-size="12.5" font-weight="600" fill="#10201e" text-anchor="start">Reviews &amp; meeting material</text><circle cx="968" cy="501" r="4" fill="#08cfc4"/><text x="982" y="506" font-size="12.5" font-weight="600" fill="#10201e" text-anchor="start">Options &amp; decision inputs</text><rect x="210" y="595" width="780" height="48" rx="12" fill="#e7f8f6" stroke="none" stroke-width="1.4"/><text x="600" y="626" font-size="17" font-weight="700" fill="#087a74" text-anchor="middle">The same EAO system combines different company context and capabilities for each department.</text></g></svg>